<?xml version="1.0" encoding="UTF-8"?>
<svg xmlns="http://www.w3.org/2000/svg" version="1.1" viewBox="0 0 1980.81 841.34">
  <g>
    <path fill="#f6b823" d="M252.93,831.34c-48.19,0-103.29-13.54-145.45-26.7C47.82,786.03.47,764.14,0,763.93l1.68-3.63c.47.22,47.62,22.01,107.03,40.54,54.69,17.06,131.24,34.79,185.36,22.33,96.88-22.31,138.01-76.57,181.56-134.02,3.61-4.76,7.24-9.55,10.92-14.34,9.83-12.81,18.22-24.16,25.62-34.17,29.42-39.81,45.63-61.73,89.68-91.96,32.82-22.52,61.77-36.06,91.08-42.61,36.9-8.24,74.04-5.24,113.53,9.18,23.37,8.54,45.19,19.35,66.29,29.81,54.77,27.15,106.5,52.8,172.4,31.11,44.84-14.76,65.6-57.17,89.63-106.27,24.3-49.65,51.85-105.93,111.03-143.87,57.24-36.7,124.52-35.77,195.76-34.78,74.45,1.04,158.85,2.21,246.28-39.66,97.04-46.47,191.64-127.27,281.15-240.15,6.46-8.15,8.56-10.76,9.66-11.46l2.15,3.38c-.76.59-4.43,5.22-8.68,10.57-16,20.18-49.29,62.16-97.67,108.79-60.1,57.93-122.3,102.5-184.89,132.48-88.28,42.27-173.17,41.09-248.06,40.05-70.62-.98-137.31-1.91-193.54,34.14-58.24,37.34-85.52,93.08-109.59,142.27-24.43,49.92-45.53,93.03-91.97,108.31-17.8,5.86-34.57,8.36-50.62,8.36-44.74,0-83.93-19.43-124.8-39.69-21-10.41-42.72-21.18-65.89-29.64-87.94-32.12-150.95-1.36-200.98,32.97-43.5,29.85-59.57,51.58-88.73,91.04-7.41,10.02-15.8,21.38-25.66,34.22-3.67,4.78-7.29,9.56-10.9,14.32-44,58.04-85.56,112.87-183.85,135.5-12.97,2.99-27.18,4.28-42.05,4.28Z"/>
    <circle r="13.5" fill="#f6b823" style="transition: offset-distance 0.25s linear, offset-path 0.25s linear" />
  </g>
</svg>